<svg xmlns="http://www.w3.org/2000/svg" baseProfile="basic" viewBox="0 0 48 48"><linearGradient id="T8aogWQ1lbVY-7gIeyJOga" x1="-130.527" x2="-78.026" y1="-95.967" y2="-43.465" gradientTransform="translate(114.367 60.125)" gradientUnits="userSpaceOnUse"><stop offset="0" stop-color="#fff"/><stop offset="1" stop-color="#8dd4f1"/></linearGradient><path fill="url(#T8aogWQ1lbVY-7gIeyJOga)" fill-rule="evenodd" d="M16.526,5.445	c2.309-0.932,4.833-1.445,7.476-1.445c9.203,0,16.963,6.229,19.288,14.697c-0.635,0.183-1.261,1.303-1.945,1.303	C36.914,19.999,18.655,5.095,16.526,5.445z" clip-rule="evenodd"/><linearGradient id="T8aogWQ1lbVY-7gIeyJOgb" x1="-134.694" x2="-82.193" y1="-91.8" y2="-39.298" gradientTransform="translate(114.367 60.125)" gradientUnits="userSpaceOnUse"><stop offset="0" stop-color="#fff"/><stop offset="1" stop-color="#53bde9"/></linearGradient><path fill="url(#T8aogWQ1lbVY-7gIeyJOgb)" fill-rule="evenodd" d="M8.942,10.841	c2.053-2.347,4.647-4.209,7.584-5.396c2.129-0.349,4.323-0.445,6.476-0.445c9.763,0,13.912,14,18.343,14	c0.684,0,1.311-0.12,1.945-0.303c0.381,1.388,0.617,2.835,0.689,4.324c-1.449,1.247-3.188,2.979-4.977,2.979	C30.251,25.999,11.386,9.105,8.942,10.841z" clip-rule="evenodd"/><linearGradient id="T8aogWQ1lbVY-7gIeyJOgc" x1="-139.828" x2="-87.326" y1="-86.666" y2="-34.164" gradientTransform="translate(114.367 60.125)" gradientUnits="userSpaceOnUse"><stop offset="0" stop-color="#fff"/><stop offset="1" stop-color="#1da6e4"/></linearGradient><path fill="url(#T8aogWQ1lbVY-7gIeyJOgc)" fill-rule="evenodd" d="M4.034,22.833	c0.264-4.579,2.071-8.747,4.908-11.992c2.444-1.736,5.2-2.841,8.06-2.841c12.175,0,13.249,17,22,17c1.789,0,3.528-0.732,4.977-1.979	c0.016,0.325,0.024,0.651,0.024,0.979c0,1.204-0.107,2.384-0.312,3.529c-1.875,3.133-4.032,6.471-7.689,6.471	C25.642,33.999,5.244,18.409,4.034,22.833z" clip-rule="evenodd"/><linearGradient id="T8aogWQ1lbVY-7gIeyJOgd" x1="-142.891" x2="-90.389" y1="-83.603" y2="-31.101" gradientTransform="translate(114.367 60.125)" gradientUnits="userSpaceOnUse"><stop offset="0" stop-color="#fff"/><stop offset="1" stop-color="#4e82cf"/></linearGradient><path fill="url(#T8aogWQ1lbVY-7gIeyJOgd)" fill-rule="evenodd" d="M5.606,31.861	C4.572,29.447,4,26.79,4,23.999c0-0.391,0.011-0.78,0.033-1.167c1.211-4.424,4.207-7.833,7.968-7.833c10.115,0,13.64,18,24,18	c3.657,0,5.815-2.337,7.689-5.471c-0.544,3.056-1.785,5.872-3.549,8.28c-3.492,2.879-5.908,4.191-9.14,4.191	C20.177,39.999,5.879,28.781,5.606,31.861z" clip-rule="evenodd"/><linearGradient id="T8aogWQ1lbVY-7gIeyJOge" x1="-146.354" x2="-93.853" y1="-80.14" y2="-27.638" gradientTransform="translate(114.367 60.125)" gradientUnits="userSpaceOnUse"><stop offset="0" stop-color="#fff"/><stop offset="1" stop-color="#1359bf"/></linearGradient><path fill="url(#T8aogWQ1lbVY-7gIeyJOge)" fill-rule="evenodd" d="M5.606,31.861	c0.273-3.08,1.336-5.861,4.908-5.861c7.315,0,9.663,13,20.488,13c3.232,0,5.648-0.312,9.14-3.191	c-3.64,4.965-9.516,8.191-16.14,8.191C15.751,43.999,8.663,38.997,5.606,31.861z" clip-rule="evenodd"/></svg>